<svg width="20" height="20" viewBox="0 0 20 20" fill="none" xmlns="http://www.w3.org/2000/svg">
<g clip-path="url(#clip0_8031_17930)">
<path d="M8.57583 0.942871C10.6469 0.616668 12.7676 1.00932 14.5836 2.05713C14.982 2.28717 15.1191 2.79729 14.8893 3.1958C14.6593 3.59444 14.1483 3.73147 13.7497 3.50146C12.2639 2.64427 10.529 2.32251 8.83462 2.58936C7.14032 2.85645 5.5883 3.69581 4.43813 4.96826C3.28787 6.24093 2.60823 7.86969 2.51333 9.58252C2.41849 11.2953 2.91304 12.9894 3.91567 14.3813C4.91836 15.7733 6.36933 16.7794 8.02407 17.2319C9.67861 17.6843 11.4391 17.5555 13.0104 16.8677C14.5816 16.1797 15.8689 14.9732 16.6588 13.4507C17.4488 11.928 17.6937 10.1804 17.3512 8.49951C17.2595 8.04862 17.5507 7.60897 18.0016 7.51709C18.4523 7.4255 18.892 7.71593 18.984 8.1665C19.4027 10.221 19.1039 12.3581 18.1383 14.2192C17.1728 16.08 15.5988 17.5543 13.6784 18.395C11.7579 19.2357 9.60678 19.3922 7.58462 18.8394C5.56236 18.2863 3.79058 17.056 2.56508 15.355C1.33958 13.6537 0.733267 11.5833 0.849264 9.48975C0.965326 7.39633 1.79592 5.40553 3.2018 3.8501C4.60772 2.29482 6.50482 1.26916 8.57583 0.942871ZM17.7438 2.74365C18.0691 2.41855 18.5971 2.41869 18.9225 2.74365C19.2478 3.0691 19.2479 3.59795 18.9225 3.92334L10.5895 12.2554C10.2641 12.5808 9.73624 12.5807 9.41079 12.2554L6.91079 9.75537C6.58582 9.42997 6.58569 8.90295 6.91079 8.57764C7.23623 8.25232 7.7641 8.25224 8.0895 8.57764L9.99965 10.4878L17.7438 2.74365Z" fill="white"/>
</g>
<defs>
<clipPath id="clip0_8031_17930">
<rect width="20" height="20" fill="white"/>
</clipPath>
</defs>
</svg>
