<svg width="50" height="38" viewBox="0 0 50 38" fill="none" xmlns="http://www.w3.org/2000/svg">
<path d="M44.6287 35.7763C44.647 35.5232 44.7379 35.281 44.8904 35.079C45.0429 34.8771 45.2504 34.7242 45.4876 34.639C45.7248 34.5538 45.9815 34.54 46.2263 34.5993C46.4712 34.6585 46.6937 34.7883 46.8666 34.9727C47.0396 35.1571 47.1556 35.3883 47.2005 35.638C47.2454 35.8877 47.2173 36.1452 47.1195 36.379C47.0217 36.6129 46.8586 36.8131 46.6499 36.9551C46.4413 37.0972 46.1961 37.175 45.9443 37.1792C45.7622 37.1887 45.5801 37.1584 45.4107 37.0902C45.2413 37.0221 45.0886 36.9178 44.963 36.7845C44.8374 36.6512 44.742 36.492 44.6833 36.318C44.6245 36.144 44.6039 35.9592 44.6228 35.7763H44.6287ZM48 35.7763V32H47.1719V34.196C47.0079 33.9951 46.7987 33.8366 46.5617 33.7337C46.3247 33.6307 46.0667 33.5863 45.8092 33.6041C45.259 33.6448 44.7444 33.8938 44.3688 34.3012C43.9932 34.7085 43.7845 35.244 43.7845 35.8C43.7845 36.3561 43.9932 36.8915 44.3688 37.2989C44.7444 37.7062 45.259 37.9552 45.8092 37.996C46.0667 38.0138 46.3247 37.9693 46.5617 37.8664C46.7987 37.7634 47.0079 37.6049 47.1719 37.4041V37.9368H48V35.7763ZM36.1594 35.7763C36.1776 35.5232 36.2685 35.281 36.421 35.079C36.5735 34.8771 36.781 34.7242 37.0182 34.639C37.2555 34.5538 37.5121 34.54 37.757 34.5993C38.0018 34.6585 38.2243 34.7883 38.3973 34.9727C38.5702 35.1571 38.6863 35.3883 38.7312 35.638C38.776 35.8877 38.7479 36.1452 38.6501 36.379C38.5524 36.6129 38.3892 36.8131 38.1806 36.9551C37.9719 37.0972 37.7268 37.175 37.475 37.1792C37.2933 37.1878 37.1119 37.1568 36.9432 37.0883C36.7745 37.0198 36.6225 36.9153 36.4976 36.7821C36.3727 36.6489 36.2778 36.4901 36.2194 36.3165C36.161 36.1429 36.1405 35.9587 36.1594 35.7763ZM39.5365 35.7763V33.6692H38.7143V34.196C38.5518 33.9948 38.3438 33.836 38.1076 33.733C37.8715 33.63 37.6142 33.5858 37.3575 33.6041C36.8072 33.6448 36.2926 33.8938 35.9171 34.3012C35.5415 34.7085 35.3327 35.244 35.3327 35.8C35.3327 36.3561 35.5415 36.8915 35.9171 37.2989C36.2926 37.7062 36.8072 37.9552 37.3575 37.996C37.6162 38.0115 37.8747 37.9636 38.111 37.8564C38.3473 37.7492 38.5543 37.5859 38.7143 37.3804V37.9131H39.5365V35.7763ZM42.7845 33.5804C42.5577 33.575 42.3333 33.6279 42.1325 33.7343C41.933 33.8428 41.7649 34.002 41.645 34.196V33.6632H40.811V37.8776H41.6509V35.51C41.6509 34.8115 41.9974 34.3735 42.5672 34.3735C42.7654 34.3786 42.9625 34.4064 43.1545 34.4564L43.4129 33.6692C43.221 33.6178 43.024 33.588 42.8256 33.5804H42.7845ZM10.3754 35.7763C10.3937 35.5235 10.4844 35.2814 10.6367 35.0796C10.7889 34.8778 10.9961 34.7249 11.233 34.6396C11.4698 34.5542 11.7262 34.5401 11.9709 34.5989C12.2156 34.6577 12.4381 34.7868 12.6113 34.9707C12.7845 35.1545 12.901 35.3852 12.9465 35.6345C12.9921 35.8838 12.9647 36.1411 12.8679 36.3751C12.771 36.609 12.6087 36.8096 12.4009 36.9523C12.193 37.0951 11.9484 37.1739 11.6969 37.1792C11.5152 37.1878 11.3338 37.1568 11.1651 37.0883C10.9965 37.0198 10.8445 36.9153 10.7195 36.7821C10.5946 36.6489 10.4997 36.4901 10.4413 36.3165C10.3829 36.1429 10.3624 35.9587 10.3813 35.7763H10.3754ZM13.7526 35.7763V33.6692H12.9185V34.196C12.7552 33.9944 12.5461 33.8353 12.309 33.7323C12.0718 33.6293 11.8135 33.5853 11.5559 33.6041C11.0057 33.6448 10.4911 33.8938 10.1155 34.3012C9.73989 34.7085 9.53114 35.244 9.53114 35.8C9.53114 36.3561 9.73989 36.8915 10.1155 37.2989C10.4911 37.7062 11.0057 37.9552 11.5559 37.996C11.8135 38.0143 12.0716 37.97 12.3087 37.8671C12.5458 37.7641 12.7549 37.6053 12.9185 37.4041V37.9368H13.7526V35.7763ZM25.1116 34.3735C25.253 34.3663 25.3944 34.3882 25.5271 34.438C25.6598 34.4877 25.781 34.5643 25.8832 34.6629C25.9855 34.7616 26.0667 34.8802 26.1219 35.0117C26.1771 35.1431 26.205 35.2844 26.204 35.4271H23.9252C23.9571 35.1362 24.0948 34.8676 24.3118 34.673C24.5287 34.4784 24.8095 34.3718 25.0998 34.3735H25.1116ZM25.1527 33.5804C24.8695 33.5718 24.5878 33.6237 24.326 33.7327C24.0641 33.8416 23.8281 34.0052 23.6334 34.2126C23.4387 34.42 23.2897 34.6665 23.1963 34.936C23.1028 35.2055 23.067 35.4919 23.0912 35.7763C23.0726 36.0671 23.1152 36.3584 23.2162 36.6314C23.3173 36.9043 23.4745 37.1526 23.6775 37.36C23.8805 37.5674 24.1247 37.7291 24.3942 37.8347C24.6636 37.9402 24.9521 37.9871 25.2408 37.9723C25.8678 37.9872 26.4797 37.7775 26.9676 37.3804L26.5271 36.7885C26.1758 37.0647 25.745 37.2184 25.2995 37.2265C24.9891 37.2389 24.6855 37.1321 24.4501 36.9278C24.2146 36.7235 24.0648 36.4368 24.0309 36.1256H27.1438V35.7763C27.1438 34.4564 26.3567 33.5804 25.1703 33.5804H25.1527ZM31.026 35.7763C31.0087 36.0708 31.0538 36.3656 31.1583 36.6412C31.2628 36.9167 31.4243 37.1667 31.6321 37.3744C31.8399 37.5822 32.0892 37.7429 32.3635 37.846C32.6377 37.9491 32.9306 37.9922 33.2227 37.9723C33.7624 38.0021 34.2939 37.8291 34.7145 37.4869L34.274 36.8299C33.9664 37.0857 33.5803 37.2259 33.1816 37.2265C33.0012 37.2277 32.8224 37.1914 32.6565 37.12C32.4906 37.0487 32.341 36.9436 32.2171 36.8115C32.0931 36.6794 31.9975 36.523 31.9361 36.352C31.8747 36.1811 31.8488 35.9992 31.8601 35.8178C31.8487 35.6369 31.8746 35.4555 31.9361 35.2852C31.9977 35.1149 32.0935 34.9592 32.2176 34.828C32.3417 34.6968 32.4915 34.5929 32.6573 34.5229C32.8232 34.4528 33.0017 34.4181 33.1816 34.4209C33.5803 34.4215 33.9664 34.5617 34.274 34.8175L34.7145 34.1545C34.292 33.8164 33.7614 33.6459 33.2227 33.6751C32.9357 33.6424 32.6451 33.6736 32.3714 33.7665C32.0976 33.8594 31.8475 34.0117 31.6386 34.2126C31.4296 34.4136 31.267 34.6583 31.1622 34.9295C31.0574 35.2007 31.0129 35.4918 31.0319 35.7823L31.026 35.7763ZM18.3044 34.0006C17.7909 33.6858 17.1956 33.5332 16.5953 33.5626C15.5439 33.5626 14.8861 34.048 14.8861 34.8767C14.8861 35.581 15.3677 35.9776 16.2898 36.1078L16.7245 36.1552C17.212 36.2439 17.5174 36.4156 17.5174 36.6346C17.5174 36.9424 17.165 37.1673 16.5072 37.1673C16.004 37.182 15.5103 37.0279 15.1034 36.7293L14.6747 37.3804C15.2076 37.7346 15.8335 37.9201 16.4719 37.9131C17.6994 37.9131 18.3573 37.3212 18.3573 36.5517C18.3573 35.7823 17.8287 35.4508 16.9124 35.3206L16.4719 35.2732C16.0784 35.2318 15.7319 35.1016 15.7319 34.8352C15.7319 34.5689 16.0843 34.3084 16.5659 34.3084C17.0242 34.3283 17.4729 34.4474 17.8815 34.6576L18.3044 34.0006ZM30.1039 33.5626C29.877 33.5559 29.6523 33.6089 29.452 33.7165C29.2513 33.8235 29.0829 33.9829 28.9645 34.1782V33.6455H28.1422V37.8598H28.9763V35.4922C28.9763 34.7938 29.3228 34.3558 29.8925 34.3558C30.0908 34.3609 30.2878 34.3887 30.4798 34.4386L30.7441 33.6514C30.5522 33.6001 30.3552 33.5703 30.1568 33.5626H30.1039ZM22.2983 33.6928H20.7653V32.438H19.9196V33.7106H19.0386V34.4505H19.9196V36.4334C19.9196 37.3982 20.2661 37.9723 21.3233 37.9723C21.7202 37.9634 22.1092 37.8578 22.4568 37.6645L22.1984 36.9246C21.9594 37.0705 21.6849 37.1463 21.4055 37.1436C21.3124 37.1569 21.2174 37.1475 21.1287 37.1161C21.0399 37.0847 20.96 37.0323 20.8955 36.9632C20.831 36.8942 20.7839 36.8106 20.7582 36.7194C20.7325 36.6282 20.7289 36.5322 20.7477 36.4393V34.4209H22.2865V33.7165L22.2983 33.6928ZM8.61338 37.8362V35.2496C8.63339 35.0289 8.60568 34.8064 8.53217 34.5976C8.45866 34.3887 8.34109 34.1984 8.18757 34.0398C8.03405 33.8811 7.84823 33.7579 7.6429 33.6786C7.43757 33.5993 7.21763 33.5658 6.99821 33.5804C6.70833 33.5704 6.4205 33.6328 6.16025 33.7618C5.90001 33.8909 5.67541 34.0827 5.50638 34.3203C5.36144 34.0798 5.15408 33.8838 4.9067 33.7534C4.65932 33.623 4.38131 33.5632 4.10266 33.5804C3.85705 33.5669 3.61218 33.6179 3.39198 33.7284C3.15955 33.8307 2.95725 33.9918 2.80465 34.196V33.6632H2V37.8776H2.83401V35.4686C2.81801 35.3239 2.8339 35.1774 2.88056 35.0397C2.92721 34.9019 3.00348 34.7763 3.10392 34.6717C3.20435 34.567 3.32647 34.4861 3.46156 34.4345C3.59664 34.383 3.74135 34.3622 3.88534 34.3735C4.47268 34.3735 4.84857 34.7642 4.84857 35.4686V37.8835H5.68258V35.4686C5.66658 35.3239 5.68247 35.1774 5.72913 35.0397C5.77578 34.9019 5.85205 34.7763 5.95249 34.6717C6.05292 34.567 6.17504 34.4861 6.31013 34.4345C6.44521 34.383 6.58992 34.3622 6.73391 34.3735C7.32125 34.3735 7.70301 34.7642 7.70301 35.4686V37.8835L8.61338 37.8362Z" fill="white"/>
<path d="M32.4885 3.28027H17.5977V27.4099H32.4885V3.28027Z" fill="#FF5F00"/>
<path d="M19.0977 15.3453C19.1112 11.8514 20.313 8.46595 22.5058 5.74515C23.2355 4.84133 24.0644 4.0223 24.977 3.30346C24.6078 3.00887 24.2242 2.73277 23.8276 2.47616C23.4023 2.19465 22.9885 1.95335 22.5632 1.72354C22.1402 1.51031 21.7067 1.31856 21.2644 1.14903C20.8161 0.97093 20.3621 0.810066 19.9023 0.672182C19.4425 0.534299 18.9655 0.40216 18.5058 0.304493C18.046 0.206825 17.5575 0.137883 17.0805 0.0861772C16.6035 0.0344709 16.1264 0 15.6437 0C15.1609 0 14.6839 0 14.2069 0.0459612C13.7299 0.0919223 13.2529 0.143629 12.7759 0.229806C12.2989 0.315983 11.8333 0.41365 11.3736 0.540044C10.9138 0.666437 10.454 0.810066 10 0.976675C9.54598 1.14328 9.1092 1.33287 8.67816 1.55119C8.24713 1.7695 7.82759 1.98782 7.41379 2.24061C7 2.49339 6.6092 2.75192 6.22414 3.03344C5.83768 3.31329 5.46556 3.61242 5.1092 3.92968C4.74946 4.24717 4.40611 4.58274 4.08046 4.93508C3.75862 5.28553 3.44828 5.64748 3.15517 6.02666C2.86207 6.40584 2.58046 6.79651 2.33333 7.17569C2.07835 7.57894 1.84432 7.99505 1.63218 8.42238C1.41847 8.84701 1.22664 9.28229 1.05747 9.72653C0.696987 10.6222 0.427434 11.5519 0.252874 12.5014C0.160119 12.9685 0.0929687 13.4403 0.0517242 13.9147C0.0172414 14.3935 0 14.8704 0 15.3453C0 15.8202 0.0172414 16.2971 0.0517242 16.7758C0.0933721 17.2502 0.160519 17.722 0.252874 18.1891C0.339081 18.6602 0.448276 19.1198 0.58046 19.5795C0.712313 20.0391 0.86769 20.4916 1.04598 20.9353C1.21515 21.3795 1.40697 21.8148 1.62069 22.2395C1.83333 22.6646 2.06897 23.084 2.32184 23.4862C2.57471 23.8883 2.85058 24.2847 3.14368 24.6352C3.43678 24.9856 3.71839 25.3763 4.06897 25.7268C4.41954 26.0772 4.74713 26.4277 5.1092 26.7609C5.46535 27.0802 5.83748 27.3813 6.22414 27.6629C6.6092 27.9501 7.00575 28.2374 7.41379 28.4615C7.82184 28.6855 8.24713 28.9383 8.67816 29.1451C9.1092 29.3519 9.55173 29.5415 10 29.7196C10.4483 29.8977 10.908 30.0299 11.3736 30.1563C11.8391 30.2827 12.3046 30.3861 12.7759 30.4665C13.2471 30.5469 13.7241 30.6101 14.2069 30.6504C14.6897 30.6906 15.1609 30.7021 15.6437 30.6963C16.1264 30.6906 16.6035 30.6618 17.0805 30.6101C17.5575 30.5584 18.0345 30.4837 18.5058 30.3918C18.977 30.2999 19.4368 30.1793 19.8966 30.0414C20.3563 29.9035 20.8104 29.7426 21.2586 29.5645C21.7069 29.3864 22.1379 29.1853 22.5632 28.9613C22.9885 28.7372 23.4023 28.5017 23.8046 28.2431C24.2012 27.9865 24.5848 27.7104 24.954 27.4158C24.0414 26.697 23.2125 25.878 22.4828 24.9741C21.7549 24.073 21.1321 23.0919 20.6264 22.0499C19.6105 19.9625 19.08 17.6724 19.0747 15.351L19.0977 15.3453Z" fill="#EB001B"/>
<path d="M49.9984 15.3449C49.9976 16.0599 49.9477 16.774 49.849 17.4821C49.753 18.1896 49.6109 18.8901 49.4237 19.5791C49.222 20.2653 48.9743 20.937 48.6823 21.5899C48.3921 22.244 48.054 22.8757 47.6708 23.4801C47.2907 24.0838 46.8682 24.6598 46.4064 25.2036C45.9419 25.7503 45.4408 26.2647 44.9064 26.7433C43.833 27.6995 42.6319 28.5019 41.3375 29.1275C40.6899 29.4409 40.0217 29.7096 39.3375 29.9319C38.651 30.1508 37.95 30.3216 37.2398 30.4432C36.5186 30.5753 35.7886 30.6541 35.0559 30.6787C34.3365 30.7007 33.6164 30.6739 32.9007 30.5983C32.1854 30.5242 31.4766 30.3974 30.78 30.2191C30.0829 30.0462 29.3992 29.8235 28.734 29.5527C27.4002 29.016 26.1485 28.2947 25.0156 27.4097C25.4704 27.0499 25.9059 26.6664 26.3202 26.2607C26.727 25.8514 27.1108 25.4199 27.4696 24.9681C27.8431 24.5172 28.1904 24.0453 28.5099 23.5548C28.8202 23.0647 29.1042 22.5584 29.3605 22.038C29.6145 21.5195 29.8371 20.9861 30.0271 20.4409C30.2213 19.8952 30.3843 19.3389 30.5156 18.7748C30.6427 18.2057 30.7405 17.6304 30.8087 17.0513C30.9381 15.9059 30.9381 14.7496 30.8087 13.6042C30.7405 13.025 30.6427 12.4498 30.5156 11.8806C30.2524 10.7525 29.867 9.65633 29.3662 8.61163C29.1086 8.0938 28.8247 7.58949 28.5156 7.10066C28.2018 6.63028 27.8622 6.17763 27.4984 5.7448C27.1395 5.29297 26.7558 4.86142 26.349 4.45215C25.9346 4.04649 25.4991 3.66295 25.0444 3.30312C25.6085 2.86046 26.2039 2.45917 26.826 2.10238C27.4393 1.74099 28.0768 1.42234 28.734 1.14869C29.4053 0.87382 30.0946 0.645391 30.7972 0.465016C31.4946 0.291361 32.2032 0.166579 32.9179 0.0915812C34.3503 -0.0621668 35.7972 -0.01576 37.2168 0.229465C37.9266 0.355627 38.6273 0.528355 39.3145 0.746528C39.9986 0.966833 40.6668 1.23365 41.3145 1.5451C41.9595 1.86071 42.5834 2.21765 43.1823 2.6137C44.3769 3.41889 45.4542 4.3856 46.3834 5.48627C46.844 6.03104 47.2665 6.60693 47.6478 7.20982C48.0299 7.8168 48.3679 8.45039 48.6593 9.10571C48.9598 9.75575 49.2152 10.4257 49.4237 11.1108C49.6117 11.8015 49.7538 12.504 49.849 13.2135C49.9475 13.9197 49.9974 14.6319 49.9984 15.3449Z" fill="#F79E1B"/>
</svg>
