<svg width="19" height="19" viewBox="0 0 19 19" fill="none" xmlns="http://www.w3.org/2000/svg">
<path d="M7.7406 0.111816C9.81164 -0.214397 11.9324 0.178306 13.7484 1.22607C14.1468 1.45606 14.2837 1.96623 14.0541 2.36475C13.8241 2.76339 13.3131 2.90042 12.9144 2.67041C11.4287 1.81329 9.69373 1.49144 7.99939 1.7583C6.3051 2.02539 4.75307 2.86476 3.60291 4.13721C2.45265 5.40982 1.77307 7.03869 1.6781 8.75146C1.58327 10.4642 2.07792 12.1584 3.08044 13.5503C4.08313 14.9423 5.5341 15.9483 7.18884 16.4009C8.84343 16.8533 10.6038 16.7245 12.1752 16.0366C13.7462 15.3487 15.0337 14.1429 15.8236 12.6206C16.6136 11.098 16.8584 9.35026 16.516 7.66943C16.4241 7.21848 16.7154 6.77796 17.1664 6.68604C17.617 6.59446 18.0566 6.88505 18.1488 7.33545C18.5674 9.38997 18.2687 11.527 17.3031 13.3882C16.3375 15.249 14.7636 16.7232 12.8431 17.564C10.9226 18.4046 8.7716 18.5612 6.74939 18.0083C4.72729 17.4553 2.95534 16.2257 1.72986 14.5249C0.504353 12.8236 -0.101959 10.7522 0.0140381 8.65869C0.13016 6.56538 0.960754 4.5744 2.36658 3.01904C3.77248 1.46383 5.66964 0.4381 7.7406 0.111816ZM16.9086 1.9126C17.2339 1.58752 17.7619 1.58769 18.0873 1.9126C18.4127 2.238 18.4126 2.76684 18.0873 3.09229L9.75427 11.4243C9.42884 11.7498 8.901 11.7498 8.57556 11.4243L6.07556 8.92432C5.75066 8.59891 5.75048 8.07188 6.07556 7.74658C6.40096 7.42142 6.92889 7.4214 7.25427 7.74658L9.16443 9.65674L16.9086 1.9126Z" fill="white"/>
</svg>
