<svg width="60" height="19" viewBox="0 0 60 19" fill="none" xmlns="http://www.w3.org/2000/svg">
<path fill-rule="evenodd" clip-rule="evenodd" d="M22.448 0.319336L14.848 18.0005H9.73496L5.41033 3.2005L5.0625 2.08165H5.11467H5.0683L5.13207 2.11644C7.65345 3.4672 9.83417 5.37434 11.5089 7.69325C11.8393 9.31644 12.1466 10.7947 12.5871 12.3831L17.335 0.319336H22.448Z" fill="#006CB5"/>
<path fill-rule="evenodd" clip-rule="evenodd" d="M43.0082 12.2263C42.9734 15.9074 39.6806 18.2843 34.6082 18.2843C32.771 18.2926 30.9472 17.9726 29.2227 17.3393L29.9009 13.3741L30.527 13.6582C31.95 14.3144 33.5056 14.6319 35.0719 14.5857C36.4632 14.5857 37.9705 14.0408 37.9705 12.8466C37.9705 12.0698 37.3444 11.519 35.4661 10.6495C33.5879 9.77991 31.2111 8.38281 31.24 5.83788C31.2516 2.4002 34.6198 0.0001981 39.4198 0.0001981C40.8828 -0.00811286 42.3356 0.245145 43.7096 0.748024L43.0545 4.57991L42.6198 4.37701C41.4763 3.90161 40.2461 3.67058 39.0082 3.69875C37.1009 3.69875 36.2429 4.48715 36.2429 5.21759C36.2429 6.04078 37.269 6.5973 38.9502 7.41469C41.7386 8.67266 43.0082 10.2089 43.0082 12.2205V12.2263Z" fill="#006CB5"/>
<path fill-rule="evenodd" clip-rule="evenodd" d="M50.1443 11.7396C51.0081 9.53673 51.8835 7.31644 52.7067 5.09615C53.182 7.31644 53.669 9.52513 54.1501 11.7396H50.1443ZM56.098 0.319336H52.3704C51.211 0.319336 50.3414 0.638176 49.8429 1.7918L42.6719 18.0237H47.7385C47.7385 18.0237 48.5675 15.8382 48.753 15.3628H54.9385C55.0777 15.9773 55.5183 18.0121 55.5183 18.0121H59.9994L56.098 0.319336Z" fill="#006CB5"/>
<path fill-rule="evenodd" clip-rule="evenodd" d="M24.3992 0.301758H29.2224L26.2021 18.0119H21.3789L24.3992 0.301758Z" fill="#006CB5"/>
<path fill-rule="evenodd" clip-rule="evenodd" d="M0 0.145508H8.16812C9.17101 0.18029 9.98261 0.504928 10.2725 1.58319L11.5246 7.71072C9.84993 5.39182 7.66921 3.48468 5.14783 2.13391L5.08406 2.09913H5.13043H5.07826L4.68406 1.89044C3.19814 1.12349 1.62554 0.537661 0 0.145508H0Z" fill="#FAA841"/>
</svg>
