<svg width="1712" height="1688" viewBox="0 0 1712 1688" fill="none" xmlns="http://www.w3.org/2000/svg">
<g clip-path="url(#clip0_2_3)">
<path d="M401.994 842.635C423.446 850.541 439.055 850.002 460.35 842.333C487.375 832.602 513.993 821.061 541.203 811.857C604.688 790.38 670.2 770.178 736.237 755.956C942.105 711.182 1155.43 701.479 1365.24 727.352C1366.93 731.125 1368.54 734.927 1370.06 738.753L1403.45 831.395C1410.77 851.869 1418.25 872.882 1426.28 892.951C1439.76 926.605 1453.13 964.823 1490.68 982.366C1522.91 997.429 1557.49 993.123 1592.28 994.789C1644.82 998.172 1687.51 1024.02 1704.12 1070.15C1707.99 1080.75 1710.31 1091.77 1711.01 1102.92C1712.59 1129.14 1711.44 1165.25 1711.44 1192.12L1711.45 1358.71L1711.44 1487.14C1711.44 1511.76 1712.46 1539.25 1710.31 1563.33C1705.68 1615.29 1660.23 1666.68 1604.48 1681.09C1568.89 1690.29 1519.05 1687.17 1481.4 1687.16L1348.01 1687.13L927.507 1687.12L675.051 1687.11C635.961 1687.14 578.418 1688.82 540.445 1686.66C519.583 1685.38 499.27 1680.06 480.893 1671.06C445.307 1653.68 418.887 1624.19 407.501 1589.15C398.883 1562.5 401.465 1507.81 401.432 1477.69L401.315 1355.16L401.705 849.588L401.994 842.635ZM762.783 1475.03L847.584 1475.16C845.492 1452.26 846.634 1416.41 846.642 1392.51L846.682 1255.17C846.68 1231.33 847.437 1203.21 846.33 1179.63C867.519 1179.43 888.711 1179.32 909.902 1179.32C939.057 1179.29 964.003 1177.71 991.626 1188.29C1044.99 1208.71 1050.39 1258.93 1060.97 1303.92C1068.25 1334.88 1074.83 1366.5 1082.76 1397.22C1088.17 1422.44 1095.3 1449.61 1099.91 1474.6C1128.08 1476 1157.34 1474.49 1185.58 1475.21C1173.13 1432.05 1163.66 1386.98 1152.6 1343.47C1131.76 1261.52 1130.87 1186.58 1036.45 1146.08C1087.58 1133.11 1130.94 1119.07 1158.01 1074.9C1197.65 1010.22 1183.12 899.582 1105.76 862.134C1054.9 837.514 996.243 841.035 940.658 841.016C881.304 840.328 821.21 842.123 761.858 841.018L762.041 1253.92C762.061 1325.5 760.25 1404.1 762.783 1475.03Z" fill="#0853FE"/>
<path d="M847.252 907.118C871.122 906.578 896.861 906.96 921.033 906.88C954.243 907.613 989.8 904.644 1022.32 911.591C1072.57 922.324 1100.21 956.071 1099.94 1001.46C1099.71 1037.7 1092.97 1058.74 1065.07 1084.71C1026.44 1116.88 974.747 1113.36 925.742 1113.31L846.06 1113.23C846.726 1091.14 844.449 912.786 847.252 907.118Z" fill="#0853FE"/>
<path d="M199.109 275.178C204.734 263.821 223.247 240.648 231.544 230.274C292.359 152.873 377.288 93.4178 475.615 59.4118C628.193 6.70846 833.892 8.77006 983.917 69.1596C1149.58 135.843 1258.84 270.208 1322.94 419.454C1332.32 441.286 1339.17 462.518 1347.77 483.739C1457.81 514.494 1457.95 588.817 1431.53 676.765C1426.23 694.416 1414.82 709.941 1398.23 720.479C1388.46 724.474 1382.59 727.156 1371.54 726.923L1365.31 727.526C1155.35 701.706 941.889 711.389 735.884 756.071C669.804 770.263 604.248 790.423 540.72 811.856C513.492 821.042 486.857 832.559 459.814 842.269C438.504 849.922 422.885 850.46 401.419 842.57C394.228 838.651 387.835 833.653 382.517 827.796C357.639 800.421 328.244 708.23 333.584 672.281C337.528 645.743 348.625 631.815 370.898 615.768C370.115 603.247 372.614 593.354 373.086 581.037C377.392 556.194 376.396 517.127 374.589 492.22C348.532 509.597 325.803 530.687 307.304 554.661C301.434 562.111 296.603 569.914 290.585 577.271C278.403 596.518 266.941 616.142 258.556 637.034C251.827 651.247 247.718 662.762 242.271 677.381C240.572 675.864 238.834 674.389 237.054 672.952C198.022 641.443 142.985 631.635 93.5555 647.381C93.34 643.569 93.5808 639.477 93.7101 635.634C95.0104 619.694 95.4439 604.082 96.9596 587.757C105.266 498.306 123.065 410.771 166.431 329.221C173.397 316.121 189.683 286.381 199.109 275.178Z" fill="#FE4548"/>
<path d="M372.125 615.734C377.019 613.065 381.936 610.432 386.875 607.832C427.721 586.362 475.755 568.829 519.88 553.736C723.676 484.017 935.193 462.763 1151.74 466.286C1213.28 467.287 1288.26 469.564 1347.88 483.686C1457.8 514.446 1457.94 588.78 1431.55 676.741C1426.25 694.394 1414.86 709.921 1398.28 720.461C1388.52 724.456 1382.66 727.138 1371.62 726.906L1365.4 727.508C1155.69 701.685 942.464 711.37 736.694 756.057C670.689 770.252 605.208 790.415 541.753 811.85C514.556 821.038 487.951 832.556 460.939 842.268C439.654 849.922 424.053 850.46 402.611 842.569C395.428 838.65 389.042 833.651 383.731 827.793C358.881 800.414 329.519 708.21 334.854 672.255C338.793 645.714 349.877 631.784 372.125 615.734Z" fill="#EDEBEA"/>
<path d="M93.4693 636.748C94.7894 620.704 95.2294 604.991 96.7682 588.559C105.201 498.523 123.27 410.416 167.295 328.334C174.366 315.148 190.899 285.213 200.469 273.938C198.727 282.454 170.561 328.125 163.917 341.788C140.292 390.345 123.182 441.225 112.944 493.366C104.665 535.809 100.327 580.452 96.4645 623.414C96.0734 627.762 97.9493 635.447 93.4693 636.748Z" fill="#FF3532"/>
<path d="M238.922 673.031C238.991 672.875 239.062 672.719 239.133 672.565C246.65 667.495 247.993 657.959 251.404 650.21C257.453 636.466 278.379 584.553 290.751 578.178C278.956 597.259 267.859 616.713 259.741 637.424C253.225 651.515 249.247 662.93 243.973 677.422C242.329 675.919 240.645 674.455 238.922 673.031Z" fill="#FF3532"/>
<path d="M95.0887 647.418C144.399 631.625 199.302 641.463 238.239 673.066C240.014 674.507 241.749 675.987 243.443 677.509C288.682 718.1 298.766 780.883 268.173 831.448C237.577 882.015 173.69 908.156 111.522 895.545C49.3542 882.937 3.91307 834.621 0.102503 777.078C-3.7106 719.533 35.0298 666.655 95.0887 647.418Z" fill="#EDEBEA"/>
</g>
<defs>
<clipPath id="clip0_2_3">
<rect width="1712" height="1666" fill="white" transform="translate(0 22)"/>
</clipPath>
</defs>
</svg>
