<?xml version="1.0" encoding="utf-8" ?><svg xmlns="http://www.w3.org/2000/svg" xmlns:xlink="http://www.w3.org/1999/xlink" width="1024" height="1024" viewBox="0 0 1024 1024"><path fill="#0853FE" d="M307.032 434.692C315.501 438.151 321.663 437.915 330.07 434.56C340.739 430.303 351.247 425.254 361.989 421.227C387.052 411.831 412.915 402.993 438.985 396.771C520.258 377.183 604.474 372.938 687.304 384.257C687.971 385.908 688.606 387.571 689.209 389.245L702.388 429.775C705.277 438.732 708.231 447.925 711.403 456.705C716.722 471.428 722.002 488.148 736.825 495.823C749.551 502.413 763.203 500.529 776.937 501.258C797.678 502.738 814.531 514.048 821.087 534.227C822.617 538.866 823.532 543.685 823.807 548.562C824.433 560.036 823.977 575.832 823.978 587.586L823.981 660.468L823.977 716.654C823.977 727.426 824.382 739.452 823.533 749.99C821.703 772.719 803.76 795.202 781.75 801.507C767.701 805.531 748.026 804.169 733.164 804.163L680.502 804.15L514.495 804.147L414.83 804.141C399.398 804.153 376.681 804.89 361.69 803.942C353.454 803.383 345.435 801.055 338.18 797.117C324.131 789.514 313.701 776.614 309.206 761.284C305.804 749.625 306.823 725.7 306.81 712.522L306.764 658.915L306.918 437.734L307.032 434.692ZM449.465 711.358L482.943 711.414C482.117 701.395 482.568 685.712 482.571 675.258L482.587 615.17C482.586 604.741 482.885 592.44 482.448 582.125C490.813 582.035 499.179 581.99 507.545 581.989C519.055 581.975 528.903 581.285 539.808 585.911C560.877 594.848 563.009 616.818 567.183 636.501C570.056 650.046 572.654 663.879 575.786 677.319C577.923 688.35 580.737 700.237 582.558 711.172C593.678 711.783 605.23 711.122 616.379 711.436C611.462 692.554 607.724 672.836 603.357 653.802C595.132 617.95 594.779 585.166 557.505 567.445C577.69 561.774 594.805 555.63 605.494 536.304C621.144 508.008 615.405 459.606 584.867 443.223C564.789 432.452 541.631 433.992 519.687 433.984C496.255 433.683 472.531 434.468 449.1 433.985L449.172 614.624C449.18 645.941 448.465 680.328 449.465 711.358Z"/><path fill="#0853FE" d="M482.988 462.163C492.341 461.925 502.426 462.093 511.897 462.058C524.909 462.381 538.841 461.073 551.582 464.133C571.271 468.86 582.102 483.723 581.994 503.712C581.907 519.674 579.263 528.942 568.333 540.381C553.198 554.55 532.943 552.999 513.742 552.974L482.521 552.94C482.782 543.213 481.89 464.659 482.988 462.163Z"/><path fill="#FE4548" d="M227.217 185.95C229.436 180.971 236.74 170.812 240.013 166.264C264.006 132.332 297.512 106.267 336.304 91.3589C396.499 68.254 477.651 69.1578 536.839 95.6323C602.196 124.866 645.303 183.771 670.59 249.2C674.29 258.771 676.993 268.079 680.385 277.382C723.8 290.865 723.855 323.448 713.431 362.004C711.339 369.742 706.839 376.548 700.293 381.168C696.437 382.919 694.122 384.095 689.762 383.993L687.304 384.257C604.474 372.938 520.258 377.183 438.985 396.771C412.915 402.993 387.052 411.831 361.989 421.227C351.247 425.254 340.739 430.303 330.07 434.56C321.663 437.915 315.501 438.151 307.032 434.692C304.195 432.974 301.673 430.783 299.575 428.215C289.76 416.214 278.163 375.798 280.27 360.038C281.826 348.404 286.204 342.298 294.991 335.263C294.682 329.774 295.668 325.437 295.854 320.037C297.553 309.146 297.16 292.019 296.447 281.1C286.167 288.718 277.2 297.964 269.902 308.474C267.586 311.74 265.68 315.161 263.306 318.386C258.5 326.824 253.978 335.427 250.67 344.586C248.015 350.817 246.394 355.865 244.245 362.274C243.575 361.609 242.889 360.962 242.187 360.332C226.788 346.519 205.075 342.219 185.574 349.122C185.489 347.451 185.584 345.657 185.635 343.972C186.148 336.984 186.319 330.14 186.917 322.983C190.194 283.768 197.216 245.393 214.325 209.642C217.073 203.899 223.498 190.861 227.217 185.95Z"/><path fill="#EDEBEA" d="M294.991 335.263C296.924 334.093 298.866 332.939 300.817 331.799C316.95 322.388 335.922 314.703 353.35 308.087C433.843 277.527 517.386 268.211 602.916 269.755C627.223 270.194 656.835 271.192 680.385 277.382C723.8 290.865 723.855 323.448 713.431 362.004C711.339 369.742 706.839 376.548 700.293 381.168C696.437 382.919 694.122 384.095 689.762 383.993L687.304 384.257C604.474 372.938 520.258 377.183 438.985 396.771C412.915 402.993 387.052 411.831 361.989 421.227C351.247 425.254 340.739 430.303 330.07 434.56C321.663 437.915 315.501 438.151 307.032 434.692C304.195 432.974 301.673 430.783 299.575 428.215C289.76 416.214 278.163 375.798 280.27 360.038C281.826 348.404 286.204 342.298 294.991 335.263Z"/><path fill="#FF3532" d="M185.635 343.972C186.148 336.984 186.319 330.14 186.917 322.983C190.194 283.768 197.216 245.393 214.325 209.642C217.073 203.899 223.498 190.861 227.217 185.95C226.54 189.659 215.594 209.551 213.012 215.502C203.831 236.651 197.182 258.812 193.203 281.522C189.986 300.008 188.3 319.452 186.799 338.164C186.647 340.058 187.376 343.405 185.635 343.972Z"/><path fill="#FF3532" d="M242.187 360.332C242.215 360.263 242.244 360.194 242.273 360.126C245.336 357.884 245.883 353.667 247.273 350.24C249.738 344.162 258.265 321.205 263.306 318.386C258.5 326.824 253.978 335.427 250.67 344.586C248.015 350.817 246.394 355.865 244.245 362.274C243.575 361.609 242.889 360.962 242.187 360.332Z"/><path fill="#EDEBEA" d="M185.574 349.122C205.075 342.219 226.788 346.519 242.187 360.332C242.889 360.962 243.575 361.609 244.245 362.274C262.136 380.016 266.124 407.457 254.025 429.558C241.925 451.66 216.659 463.086 192.073 457.574C167.487 452.063 149.516 430.945 148.009 405.794C146.501 380.642 161.822 357.53 185.574 349.122Z"/></svg>